<?xml version="1.0" encoding="iso-8859-1"?>
<!-- Generator: Adobe Illustrator 21.0.0, SVG Export Plug-In . SVG Version: 6.00 Build 0)  -->
<svg xmlns="http://www.w3.org/2000/svg" xmlns:xlink="http://www.w3.org/1999/xlink" version="1.1" id="Capa_1" x="0px" y="0px" viewBox="0 0 512 512" style="enable-background:new 0 0 512 512;" xml:space="preserve" width="512" height="512">
<g>
	<path style="fill:#6f90ff;" d="M146.901,486.252l45.039,18.181l16.139-19.606c32.303,7.797,65.156,7.43,96.049-0.047l16.84,19.721   l44.705-18.991l-2.444-25.233c27.177-16.611,50.662-39.643,67.939-67.977l25.813,2.031l18.185-45.037l-19.555-16.095   c7.805-32.321,7.434-65.188-0.059-96.094l19.706-16.829l-18.985-44.695l-25.251,2.45c-16.615-27.144-39.637-50.601-67.962-67.855   l2.042-25.875l-45.035-18.175l-16.142,19.605c-32.302-7.795-65.155-7.43-96.047,0.043l-16.842-19.719L146.33,85.049l2.445,25.233   c-27.177,16.61-50.66,39.639-67.935,67.975l-25.816-2.034L36.84,221.256l19.554,16.098c-7.807,32.318-7.436,65.19,0.056,96.096   l-19.708,16.822l18.988,44.701l25.249-2.453c16.616,27.146,39.637,50.605,67.964,67.866L146.901,486.252z"/>
	<path style="fill:#5779ea;" d="M304.193,22.557c0,8.313-6.742,15.056-15.06,15.056h-66.266c-8.318,0-15.06-6.742-15.06-15.056l0,0   c0-8.316,6.741-15.057,15.06-15.057h66.266C297.451,7.5,304.193,14.24,304.193,22.557L304.193,22.557z"/>
	<path style="fill:#FFFFFF;" d="M401.71,232.206L256,285.276V129.449c-86.088,0-155.875,69.768-155.875,155.827   c0,86.063,69.787,155.825,155.875,155.825s155.875-69.763,155.875-155.825c0-18.633-3.272-36.504-9.271-53.067"/>
	<g>
		<path style="fill:#F0EEF0;" d="M216,299.845l40-14.569V129.449c-13.829,0-27.234,1.809-40,5.188V299.845z"/>
		<path style="fill:#F0EEF0;" d="M402.605,232.209l-0.894-0.003l-35.095,12.782c3.43,12.852,5.26,26.356,5.26,40.288    c0,79.288-59.233,144.74-135.875,154.553c6.548,0.838,13.223,1.272,20,1.272c86.088,0,155.875-69.763,155.875-155.825    C411.875,266.644,408.604,248.772,402.605,232.209z"/>
	</g>
	<path style="fill:#FFE07D;" d="M335.755,202.264c0,0-54.866,98.742-67.042,110.891c-12.175,12.148-31.897,12.129-44.05-0.041   c-12.15-12.171-12.132-31.886,0.043-44.036C236.881,256.929,335.755,202.264,335.755,202.264z"/>
	<path style="fill:#FFD064;" d="M291.774,227.091c-17.112,30.103-44.833,77.854-53.062,86.063c-2.13,2.125-4.494,3.869-7.004,5.25   c11.823,6.5,26.974,4.759,37.004-5.25c12.176-12.148,67.042-110.891,67.042-110.891S315.254,213.598,291.774,227.091z"/>
</g>
<g>
	<g>
		<path d="M389.095,211.72c-2.526,0-4.991-1.275-6.405-3.588l-0.503-0.817c-2.18-3.522-1.092-8.145,2.43-10.324    c3.522-2.182,8.144-1.093,10.325,2.43l0.544,0.886c2.162,3.533,1.049,8.149-2.484,10.312    C391.78,211.364,390.429,211.72,389.095,211.72z M361.959,178.533c-2.345,0-4.145-1.121-5.807-2.654    c-3.051-2.802-3.252-7.546-0.45-10.597c2.801-3.052,7.545-3.253,10.597-0.45l0.758,0.698c3.039,2.814,3.221,7.561,0.406,10.6    C365.986,177.726,363.975,178.533,361.959,178.533z M326.841,153.956c-1.564,0-2.901-0.567-4.263-1.258    c-3.699-1.864-5.186-6.374-3.321-10.073s6.374-5.187,10.073-3.321c1.802,0.914,3.346,1.988,4.259,3.864    c1.023,2.102,1.002,4.61-0.06,6.693C332.203,152.46,329.571,153.956,326.841,153.956z M286.361,139.907    c-0.809-0.033-1.607-0.142-2.395-0.324c-4.069-0.774-6.741-4.7-5.966-8.77c0.773-4.069,4.697-6.74,8.769-5.967    c1.95,0.379,3.703,0.964,5.093,2.471c1.616,1.752,2.312,4.216,1.846,6.555C292.997,137.44,289.864,139.907,286.361,139.907z"/>
	</g>
	<g>
		<path style="fill:#28355f;" d="M479.932,343.502l-15.974-13.147c6.46-29.692,6.435-60.784-0.076-90.502l16.246-13.874    c2.49-2.126,3.313-5.622,2.033-8.636l-18.985-44.695c-1.28-3.014-4.364-4.838-7.627-4.532l-20.638,2.003    c-16.46-25.578-38.453-47.528-64.015-63.892l1.684-21.336c0.258-3.265-1.633-6.319-4.67-7.545l-45.035-18.175    c-3.035-1.227-6.515-0.341-8.597,2.188l-13.195,16.025c-12.351-2.686-24.945-4.233-37.582-4.675V45.112h25.633    c12.439,0,22.56-10.118,22.56-22.556S301.572,0,289.133,0h-66.266c-12.276,0-22.56,10.277-22.56,22.557    c0,12.28,10.283,22.556,22.56,22.556H248.5v27.597c-12.729,0.447-25.421,2.016-37.872,4.736l-13.889-16.261    c-2.127-2.489-5.622-3.312-8.636-2.032l-44.707,18.993c-3.014,1.28-4.848,4.368-4.532,7.627l1.998,20.617    c-25.606,16.455-47.583,38.454-63.97,64.032l-21.28-1.677c-3.272-0.251-6.318,1.633-7.544,4.669l-18.183,45.034    c-1.226,3.036-0.34,6.517,2.188,8.598l15.973,13.15c-6.462,29.688-6.437,60.784,0.072,90.503l-16.246,13.868    c-2.491,2.126-3.314,5.622-2.034,8.637l18.988,44.701c1.28,3.014,4.375,4.844,7.628,4.532l20.637-2.005    c16.459,25.576,38.455,47.533,64.016,63.901l-1.685,21.327c-0.258,3.265,1.632,6.319,4.669,7.546l45.04,18.181    c3.035,1.227,6.517,0.34,8.598-2.188l13.192-16.026c29.674,6.454,60.749,6.432,90.456-0.064l13.887,16.262    c1.458,1.707,3.558,2.63,5.706,2.63c0.986,0,1.982-0.194,2.93-0.597l44.705-18.991c3.013-1.28,4.848-4.367,4.533-7.627    l-1.998-20.618c25.605-16.455,47.584-38.455,63.974-64.034l21.277,1.674c3.257,0.258,6.317-1.633,7.543-4.669l18.185-45.037    C483.346,349.064,482.461,345.583,479.932,343.502z M215.308,22.557c0-4.167,3.391-7.557,7.56-7.557h66.266    c4.168,0,7.56,3.39,7.56,7.557c0,4.166-3.392,7.556-7.56,7.556h-66.266C218.699,30.112,215.308,26.723,215.308,22.557z     M452.086,386.422l-20.329-1.6c-2.813-0.224-5.521,1.159-6.992,3.572c-16.203,26.571-38.834,49.215-65.447,65.481    c-2.451,1.498-3.831,4.264-3.554,7.123l1.914,19.758L323.1,495.446l-13.268-15.537c-1.444-1.69-3.539-2.63-5.704-2.63    c-0.587,0-1.179,0.068-1.764,0.21c-30.288,7.331-62.283,7.347-92.525,0.046c-2.795-0.673-5.726,0.306-7.55,2.524l-12.643,15.359    l-34.835-14.063l1.609-20.38c0.223-2.819-1.159-5.524-3.574-6.995c-26.556-16.183-49.195-38.789-65.47-65.377    c-1.5-2.45-4.266-3.827-7.122-3.55l-19.772,1.921l-14.686-34.572l15.523-13.25c2.15-1.835,3.086-4.724,2.42-7.471    c-7.345-30.3-7.364-62.31-0.055-92.568c0.674-2.792-0.306-5.725-2.523-7.551l-15.307-12.602l14.064-34.831l20.332,1.602    c2.818,0.225,5.521-1.158,6.993-3.572c16.198-26.57,38.828-49.213,65.442-65.479c2.451-1.498,3.831-4.264,3.554-7.123    l-1.915-19.757l34.581-14.691l13.27,15.536c1.835,2.148,4.722,3.083,7.466,2.419c30.286-7.324,62.28-7.341,92.524-0.042    c2.79,0.671,5.723-0.307,7.549-2.523l12.646-15.359l34.831,14.057l-1.609,20.39c-0.223,2.819,1.16,5.523,3.575,6.995    c26.555,16.175,49.193,38.778,65.467,65.365c1.499,2.448,4.264,3.821,7.122,3.549l19.774-1.919l14.683,34.568l-15.523,13.257    c-2.149,1.835-3.084,4.724-2.418,7.471c7.345,30.296,7.365,62.305,0.058,92.565c-0.674,2.793,0.306,5.726,2.524,7.552    l15.306,12.598L452.086,386.422z"/>
		<path style="fill: #354c98;" d="M402.175,224.722c-1-0.063-2.029,0.072-3.031,0.437l-85.47,31.13c13.667-23.504,25.991-45.62,28.637-50.383    c3.558-6.405-3.768-13.751-10.185-10.206c-5.996,3.315-39.463,21.874-68.625,39.174V129.449c0-4.143-3.358-7.5-7.5-7.5    c-37.246,0-73.682,12.862-102.598,36.216c-7.51,6.065,1.864,17.777,9.425,11.67c24.313-19.637,54.482-31.104,85.673-32.694    v106.768c-13.984,8.577-25.22,15.995-29.093,19.86c-14.856,14.825-14.977,39.802-0.052,54.645    c14.902,14.819,39.741,14.932,54.654,0.051c5.003-4.991,15.958-22.248,27.687-41.849l96.138-35.015    c4.338,14.093,6.54,28.751,6.54,43.677c0,81.787-66.561,148.325-148.375,148.325s-148.375-66.538-148.375-148.325    c0-34.047,11.222-66.063,32.451-92.59c6.032-7.537-5.637-16.96-11.711-9.373c-23.047,28.798-35.74,65.009-35.74,101.963    c0,90.058,73.29,163.325,163.375,163.325s163.375-73.268,163.375-163.325c0-19.103-3.27-37.815-9.719-55.621    C408.5,226.462,405.401,224.535,402.175,224.722z M263.415,307.846c-9.228,9.207-24.231,9.194-33.445-0.031    c-4.461-4.469-6.915-10.406-6.909-16.72c0.006-6.313,2.471-12.248,6.941-16.708c6.861-6.847,49.38-31.816,86.179-52.592    C295.332,258.543,270.278,300.998,263.415,307.846z"/>
	</g>
</g>















</svg>
